<?xml version="1.0" encoding="utf-8"?>
<!-- Generator: Adobe Illustrator 23.0.3, SVG Export Plug-In . SVG Version: 6.00 Build 0)  -->
<svg version="1.1" id="Capa_1" xmlns="http://www.w3.org/2000/svg" xmlns:xlink="http://www.w3.org/1999/xlink" x="0px" y="0px"
	 viewBox="0 0 53.6 53.6" style="enable-background:new 0 0 53.6 53.6;" xml:space="preserve">
<style type="text/css">
	.st0{fill:#FCCE00;}
</style>
<g>
	<path class="st0" d="M48.8,15.3c-7.1-11.6-17.8-3.5-17.8-3.5c-0.7,0.5-2,1-2.8,1l-2.9,0c-0.9,0-2.1-0.4-2.8-1
		c0,0-10.7-8.1-17.8,3.5C-2.3,27,0.6,39.6,0.6,39.6c0.5,3.1,2.1,5.2,5.3,4.9c3.1-0.3,9.8-8.4,9.8-8.4c0.6-0.7,1.7-1.2,2.6-1.2
		l17.1,0c0.9,0,2,0.5,2.6,1.2c0,0,6.7,8.1,9.8,8.4c3.1,0.3,4.8-1.8,5.3-4.9C53.1,39.6,55.9,27,48.8,15.3z M20.4,24.8h-3.7v3.5
		c0,0-0.8,0.6-2,0.6c-1.2,0-1.7-0.6-1.7-0.6v-3.5H9.5c0,0-0.4-0.4-0.5-1.6c-0.1-1.2,0.5-2.1,0.5-2.1h3.7v-3.7c0,0,0.8-0.4,1.8-0.4
		c1.1,0,1.9,0.4,1.9,0.4l0,3.6h3.5c0,0,0.6,0.8,0.7,1.7C21,23.7,20.4,24.8,20.4,24.8z M37.2,28.8c-1.6,0-2.9-1.3-2.9-2.9
		c0-1.6,1.3-2.9,2.9-2.9c1.6,0,2.9,1.3,2.9,2.9C40.1,27.5,38.8,28.8,37.2,28.8z M37.2,20.8c-1.6,0-2.9-1.3-2.9-2.9
		c0-1.6,1.3-2.9,2.9-2.9c1.6,0,2.9,1.3,2.9,2.9C40.1,19.5,38.8,20.8,37.2,20.8z M44.5,25.1c-1.6,0-2.9-1.3-2.9-2.9
		c0-1.6,1.3-2.9,2.9-2.9c1.6,0,2.9,1.3,2.9,2.9C47.4,23.8,46.1,25.1,44.5,25.1z"/>
</g>
</svg>
