<?xml version="1.0" encoding="utf-8"?>
<!-- Generator: Adobe Illustrator 23.0.3, SVG Export Plug-In . SVG Version: 6.00 Build 0)  -->
<svg version="1.1" id="Capa_1" xmlns="http://www.w3.org/2000/svg" xmlns:xlink="http://www.w3.org/1999/xlink" x="0px" y="0px"
	 viewBox="0 0 512 512" style="enable-background:new 0 0 512 512;" xml:space="preserve">
<style type="text/css">
	.st0{fill:#FCC117;}
	.st1{fill:#FDBF00;}
	.st2{fill:#FF6A7C;}
</style>
<path class="st0" d="M206,392.4c-4.5,17.4-13.8,33.9-27.3,47.4c-31.2,30.9-146.7,67.7-159.6,71.6c-5.1,1.5-10.8,0-14.7-3.9
	s-5.4-9.6-3.9-15c3.9-12.6,41-127.8,71.9-159c13.5-13.5,30-22.8,47.4-27.3l42.9,42.9L206,392.4z"/>
<g>
	<path class="st0" d="M162.8,349.2l43.2,43.2c-4.5,17.4-13.8,33.9-27.3,47.4c-31.2,30.9-146.7,67.7-159.6,71.6
		c-5.1,1.5-10.8,0-14.7-3.9L162.8,349.2z"/>
	<path class="st0" d="M167.9,365.4L125.6,408c-3,2.7-6.9,4.2-10.5,4.2c-3.9,0-7.8-1.5-10.8-4.2v-0.3c-5.7-6-5.7-15.3,0-21l42.6-42.3
		c5.7-6,15-6,20.7,0h0.3C173.9,350.1,173.9,359.7,167.9,365.4z"/>
</g>
<path class="st1" d="M167.9,344.4c6,5.7,6,15.3,0,21L125.6,408c-3,2.7-6.9,4.2-10.5,4.2c-3.9,0-7.8-1.5-10.8-4.2v-0.3l63.3-63.3
	L167.9,344.4L167.9,344.4z"/>
<path class="st2" d="M174.5,147.5c-106.6,0-140.2,90.1-142.9,93.1c-2.3,4.6-2.1,10.2,0.6,14.6c2.7,4.4,7.6,7.1,12.8,7.1
	c61.6,5.4,100,8.8,96.9,8.6l51-123.4L174.5,147.5L174.5,147.5L174.5,147.5z"/>
<path class="st2" d="M241,369.9c0.2,3.1,7.8,102.2,7.3,95.8c0,11.2,11.8,18.4,21.8,13.4c3-2.7,93.1-37,93.1-142.9v-18.5L241,369.9z"
	/>
<path class="st2" d="M253.2,387c-15.9,8.1-31.8,15.9-46.8,23.4c-5.7,3-12.6,1.8-17.4-2.7l-84.6-84.6c-4.5-4.8-5.7-11.7-2.7-17.4
	c7.5-15,15.3-30.9,23.4-46.8c4.8-9.3,39.6,11.4,44.4,1.8l81.9,81.9C241.8,347.4,262.5,382.2,253.2,387z"/>
<path class="st2" d="M253.2,387c-15.9,8.1-31.8,15.9-46.8,23.4c-5.7,3-12.6,1.8-17.4-2.7l-42.3-42.3l63.9-63.6l40.8,40.8
	C241.8,347.4,262.5,382.2,253.2,387z"/>
<path class="st2" d="M499.5,149c-13.5,51.6-37.8,93.6-75.6,129.9c-44.1,42.6-114.6,79.8-170.7,108l-63.9-63.9L125,258.9
	c28.2-56.1,65.4-126.9,108-170.7C269.4,50.3,311.4,26,363,12.5l30.3,11.1c0.6,26.1,11.1,49.8,28.2,66.9
	c17.1,17.1,40.8,27.6,66.9,28.2L499.5,149z"/>
<path class="st2" d="M499.5,149c-13.5,51.6-37.8,93.6-75.6,129.9c-44.1,42.6-114.6,79.8-170.7,108l-63.9-63.9L421.5,90.5
	c17.1,17.1,40.8,27.6,66.9,28.2L499.5,149z"/>
<path class="st2" d="M380.1,131.9c-29.1-29.1-76.8-29.1-105.9,0c-29.1,29.4-29.1,76.5,0,105.9v0.3c29.1,29.1,76.8,29.1,105.9,0
	C409.5,208.7,409.5,161.3,380.1,131.9z"/>
<path class="st2" d="M499.5,149c-2.4,0-9.3-0.3-11.7-0.3c-34.5-0.6-65.1-14.4-87.6-36.9c-22.5-22.5-36.3-53.1-36.9-87.6
	c0-2.4-0.3-9.3-0.3-11.7c42.6-11.1,90.3-13.8,134.1-12c3.9,0,7.5,1.5,10.2,4.2c2.7,2.7,4.2,6.3,4.2,10.2
	C513.3,58.7,510.3,106.4,499.5,149z"/>
<path class="st2" d="M252.6,280.5c-5.7,6-15.3,6-21,0c-6-5.7-6-15.3,0-21c5.7-6,15.3-6,21,0C258.6,265.2,258.6,274.8,252.6,280.5z"
	/>
<path class="st2" d="M499.5,149c-2.4,0-9.3-0.3-11.7-0.3c-34.5-0.6-65.1-14.4-87.6-36.9L507.3,4.7c2.7,2.7,4.2,6.3,4.2,10.2
	C513.3,58.7,510.3,106.4,499.5,149z"/>
<path class="st2" d="M380.1,238.2c-29.1,29.1-76.8,29.1-105.9,0v-0.3l105.9-105.9C409.5,161.3,409.5,208.7,380.1,238.2z"/>
<path class="st2" d="M252.6,280.5c-5.7,6-15.3,6-21,0l21-21C258.6,265.2,258.6,274.8,252.6,280.5z"/>
</svg>
