<?xml version="1.0" encoding="utf-8"?>
<!-- Generator: Adobe Illustrator 23.0.3, SVG Export Plug-In . SVG Version: 6.00 Build 0)  -->
<svg version="1.1" id="Layer_1" xmlns="http://www.w3.org/2000/svg" xmlns:xlink="http://www.w3.org/1999/xlink" x="0px" y="0px"
	 viewBox="0 0 496 496" style="enable-background:new 0 0 496 496;" xml:space="preserve">
<style type="text/css">
	.st0{fill:#FCC117;}
	.st1{fill:#FFFFFF;}
	.st2{fill:#FF6A7C;}
</style>
<path class="st0" d="M405.4,387.3l34.6,98.9H232l13.1-37.4l21.4-61.4c5.3,10,11.1,18.8,21.4,18.8c24,0,24-48,48-48s24,48,48.1,48
	C394.2,406.1,400.2,397.3,405.4,387.3z"/>
<path class="st0" d="M84.9,359.6c4.7,8.2,10.3,14.6,19,14.6c24,0,24-48,48-48s24,48,48.1,48c8.8,0,14.3-6.5,19-14.6l26.1,89.2
	L232,486.1H48L84.9,359.6z"/>
<path class="st0" d="M318.1,225.9l29.5,101.2c-3.8-0.6-7.7-1-11.6-1c-14.4,0-27.9,4.6-39.1,12.5c-11.2,7.9-19.9,19.2-24.7,32.8
	l-5.6,15.9l-21.4,61.4L219,359.5l-5.6-19.3c-7.4-25.4-29.5-43.4-55.5-45.8l9.4-32.3l10.6-36.2c5.4,10.6,11.3,20.2,22,20.2
	c24,0,24-48,48-48s24,48,48.1,48C306.7,246.1,312.6,236.5,318.1,225.9z"/>
<g>
	<path class="st1" d="M399.8,371.4l5.5,15.8c-5.2,10.1-11.1,18.9-21.4,18.9c-24.1,0-24.1-48-48.1-48s-24,48-48,48
		c-10.2,0-16.1-8.8-21.4-18.8l5.6-15.9c4.8-13.6,13.5-24.9,24.7-32.8c11.2-7.9,24.7-12.5,39.1-12.5c3.9,0,7.8,0.3,11.6,1v0.1
		C371.4,331.3,391.6,348,399.8,371.4z"/>
	<path class="st1" d="M103.9,374.1c-8.7,0-14.3-6.4-19-14.6l5.7-19.4c4-13.6,12.2-25.1,23-33.3c10.8-8.1,24.2-12.8,38.4-12.8
		c2,0,4,0.1,5.9,0.3c26,2.4,48.1,20.4,55.5,45.8l5.6,19.3c-4.7,8.2-10.2,14.6-19,14.6c-24.1,0-24.1-48-48.1-48
		S127.9,374.1,103.9,374.1z"/>
	<path class="st1" d="M309.4,196.2l8.6,29.7c-5.4,10.6-11.4,20.2-22.1,20.2c-24.1,0-24.1-48-48.1-48s-24,48-48,48
		c-10.7,0-16.6-9.6-22-20.2l8.6-29.8c4-13.6,12.2-25.1,23-33.3c4.5-3.4,9.4-6.2,14.7-8.2c7.4-3,15.4-4.6,23.7-4.6
		C276.5,150.1,301.4,168.9,309.4,196.2z"/>
	<path class="st1" d="M50,182.2c-1.3-5.1-2-10.6-2-16.1c0-35.4,28.6-64,64-64c28.4,0,52.4,18.5,60.8,44c5.8-2.6,12.4-4,19.2-4
		c12.5,0,23.8,4.7,32.3,12.6c-5.3,2.1-10.2,4.9-14.7,8.2c-10.8,8.2-19,19.7-23,33.3l-8.6,29.8l-10.6,36.2H48c-22.1,0-40-17.9-40-40
		c0-22.1,17.9-40,40-40C48.6,182.1,49.4,182.1,50,182.2z"/>
</g>
<path class="st2" d="M360,62.1l-112,40v-88L360,62.1z"/>
</svg>
