<?xml version="1.0" encoding="utf-8"?>
<!-- Generator: Adobe Illustrator 23.0.3, SVG Export Plug-In . SVG Version: 6.00 Build 0)  -->
<svg version="1.1" id="Capa_1" xmlns="http://www.w3.org/2000/svg" xmlns:xlink="http://www.w3.org/1999/xlink" x="0px" y="0px"
	 viewBox="0 0 19.3 19.3" style="enable-background:new 0 0 19.3 19.3;" xml:space="preserve">
<style type="text/css">
	.st0{fill:#6981EC;}
	.st1{fill:#FF6A7C;}
</style>
<g>
	<path class="st0" d="M7.6,10.3c-0.4,0.4-0.5,0.7-0.9,1.5C7,11.9,7.6,12.4,8,13.3c0.8-0.5,1.2-0.5,1.7-0.9c2.9-2.4,9.9-11,9.6-11.3
		C19,0.8,10.1,7.5,7.6,10.3z"/>
	<path class="st1" d="M5.9,12.4c-1.2-0.2-2.5,0.6-3.3,2.5c-0.8,2-2.3,2.8-2.6,2.7c1.5,0.6,6.2,2,7.3-3.4C6.9,12.9,5.9,12.4,5.9,12.4
		z"/>
</g>
</svg>
