<?xml version="1.0" encoding="utf-8"?>
<!-- Generator: Adobe Illustrator 23.0.3, SVG Export Plug-In . SVG Version: 6.00 Build 0)  -->
<svg version="1.1" id="Capa_1" xmlns="http://www.w3.org/2000/svg" xmlns:xlink="http://www.w3.org/1999/xlink" x="0px" y="0px"
	 viewBox="0 0 52.2 52.2" style="enable-background:new 0 0 52.2 52.2;" xml:space="preserve">
<style type="text/css">
	.st0{fill:#6981EC;}
	.st1{fill:#FCC117;}
</style>
<g>
	<path class="st0" d="M26,32.2H2c-1.1,0-2-1.9-2-3v-2c0-1.1,0.9-1,2-1h48c1.1,0,2-0.1,2,1v2c0,1.1-0.9,3-2,3h-7H26z"/>
	<path class="st0" d="M52.2,29.2c0,12-11.6,23-26,23c-14.4,0-26-11-26-23H52.2z"/>
	<path class="st0" d="M25.3,48.5c0,0-0.1,0-0.1,0c-5.9-0.6-11.3-2.9-15.2-6.6c-0.4-0.4-0.4-1-0.1-1.4s1-0.4,1.4-0.1
		c3.6,3.3,8.6,5.5,14,6.1c0.5,0.1,0.9,0.5,0.9,1.1C26.2,48.1,25.8,48.5,25.3,48.5z"/>
	<path class="st0" d="M7.4,39c-0.2,0-0.5-0.1-0.7-0.3c-0.4-0.4-0.8-0.8-1.2-1.3C5.2,37,5.3,36.3,5.8,36c0.4-0.3,1.1-0.2,1.4,0.2
		c0.3,0.4,0.6,0.7,0.9,1c0.4,0.4,0.4,1,0.1,1.4C8,38.9,7.7,39,7.4,39z"/>
	<path class="st1" d="M31,26.2v8.9c0,1.4,1.1,2.5,2.5,2.5c1.4,0,2.5-1.1,2.5-2.5v-1.7v-0.8c0-1.4,1.1-2.5,2.5-2.5
		c1.4,0,2.5,1.1,2.5,2.5v6.6v1.7c0,1.4,1.1,2.5,2.5,2.5s2.5-1.1,2.5-2.5V26.1v0.1H31z"/>
	<path class="st1" d="M29.1,26.2L5.2,1.7C4.4,0.9,3.1,0.6,2.3,1.5L2,1.6C1.2,2.4,1.2,4.2,2,5l20.7,21.2L29.1,26.2L29.1,26.2z"/>
</g>
</svg>
