<?xml version="1.0" encoding="utf-8"?>
<!-- Generator: Adobe Illustrator 23.0.3, SVG Export Plug-In . SVG Version: 6.00 Build 0)  -->
<svg version="1.1" id="Capa_1" xmlns="http://www.w3.org/2000/svg" xmlns:xlink="http://www.w3.org/1999/xlink" x="0px" y="0px"
	 viewBox="0 0 612 612" style="enable-background:new 0 0 612 612;" xml:space="preserve">
<style type="text/css">
	.st0{fill:#FF6A7C;}
	.st1{fill:#FCC117;}
</style>
<g>
	<g id="directions-bike">
		<circle class="st0" cx="408" cy="86.7" r="45.9"/>
		<path class="st0" d="M377.4,265.2h107.1v-45.9h-81.6l-48.5-84.1c-7.6-12.8-20.4-20.4-38.3-20.4c-12.8,0-23,5.1-30.6,12.8
			l-94.4,94.3c-7.6,7.6-12.8,17.9-12.8,30.6c0,15.3,7.6,30.6,20.4,38.2l86.7,51v127.5h45.9V303.5l-56.1-43.4l58.6-58.6L377.4,265.2z
			"/>
		<path class="st1" d="M484.5,316.2c-71.4,0-127.5,56.1-127.5,127.5s56.1,127.5,127.5,127.5S612,515.1,612,443.7
			S555.9,316.2,484.5,316.2z M484.5,533c-48.5,0-89.3-40.8-89.3-89.3c0-48.5,40.8-89.3,89.3-89.3s89.3,40.8,89.3,89.3
			C573.8,492.1,533,533,484.5,533z M127.5,316.2C56.1,316.2,0,372.3,0,443.7s56.1,127.5,127.5,127.5S255,515.1,255,443.7
			S198.9,316.2,127.5,316.2z M127.5,533c-48.4,0-89.3-40.8-89.3-89.3c0-48.5,40.8-89.3,89.3-89.3s89.3,40.8,89.3,89.3
			C216.8,492.1,175.9,533,127.5,533z"/>
	</g>
</g>
</svg>
