<?xml version="1.0" encoding="utf-8"?>
<!-- Generator: Adobe Illustrator 23.0.3, SVG Export Plug-In . SVG Version: 6.00 Build 0)  -->
<svg version="1.1" id="Capa_1" xmlns="http://www.w3.org/2000/svg" xmlns:xlink="http://www.w3.org/1999/xlink" x="0px" y="0px"
	 viewBox="0 0 399 399" style="enable-background:new 0 0 399 399;" xml:space="preserve">
<style type="text/css">
	.st0{fill:#5254B7;}
</style>
<g>
	<g id="Layer_5_59_">
		<g>
			<path class="st0" d="M225.1,276.6c-7.1,4.4-16.2,6.8-25.6,6.8s-18.5-2.4-25.6-6.8L57.9,205.5c0,0-10.5-6.4-10.5,8.1
				c0,16.5,0,66,0,66c0,0.7,0,4,0,5c0,37.4,68.1,77.7,152,77.7s152-40.3,152-77.7c0-1,0-4.3,0-5c0,0,0-52.5,0-70c0-11.7-7.4-6-7.4-6
				L225.1,276.6z"/>
			<path class="st0" d="M392.3,148.9c8.9-5.5,8.9-14.4,0-19.9L215.7,40.7c-8.9-5.5-23.5-5.5-32.4,0L6.7,129.1
				c-8.9,5.5-8.9,14.4,0,19.9l176.6,108.3c8.9,5.5,23.5,5.5,32.4,0"/>
			<path class="st0" d="M385,309.5c0-29.9,0-119.6,0-119.6s0.1-5.7-3.3-3.8c-2.7,1.5-9.3,5.2-11.6,7.2c-2.7,2.3-2.1,7.6-2.1,7.6
				s0,81.5,0,108.6c0,1.5-1.3,2.3-2,2.6c-6.1,3.6-10.2,10.2-10.2,17.8c0,11.4,9.3,20.7,20.7,20.7c11.4,0,20.7-9.3,20.7-20.7
				c0-7.6-4.1-14.3-10.3-17.9C386.3,311.7,385,311,385,309.5z"/>
		</g>
	</g>
</g>
</svg>
